PathFileType	3	(X/Y/Z)	D:\Vicon Setup\UG\Test1\New Session\NewSession12.trc
DataRate	CameraRate	NumFrames	NumMarkers	Units	OrigDataRate	OrigDataStartFrame	OrigNumFrames
100.0	100.0	11	27	mm	100.0	517	351	
Frame#	Time	Sternum			LShoulder			RShoulder			LASIS			RASIS			RPSIS			LPSIS			RKneeLateral			RKneeMedial			RFibulaHead			RMidShank			RAnkleLateral			RAnkleMedial			RHeel			RMT5			RMT2			RToe			LKneeLateral			LKneeMedial			LFibulaHead			LMidShank			LAnkleLateral			LAnkleMedial			LHeel			LMT5			LMT2			LToe			
		X1	Y1	Z1	X2	Y2	Z2	X3	Y3	Z3	X4	Y4	Z4	X5	Y5	Z5	X6	Y6	Z6	X7	Y7	Z7	X8	Y8	Z8	X9	Y9	Z9	X10	Y10	Z10	X11	Y11	Z11	X12	Y12	Z12	X13	Y13	Z13	X14	Y14	Z14	X15	Y15	Z15	X16	Y16	Z16	X17	Y17	Z17	X18	Y18	Z18	X19	Y19	Z19	X20	Y20	Z20	X21	Y21	Z21	X22	Y22	Z22	X23	Y23	Z23	X24	Y24	Z24	X25	Y25	Z25	X26	Y26	Z26	X27	Y27	Z27	
517	5.16	-213.59418	1340.3792	-809.737	-410.12604	1409.6333	-726.64771	-39.953453	1375.9409	-711.07275	-350.70612	956.05713	-768.88666	-94.77272	983.76123	-765.04401	-160.22586	987.33313	-590.75775	-291.35687	982.29193	-591.55017	-70.86721	523.0661	-865.49475	-201.9297	513.83984	-880.79498	-70.770424	442.1293	-883.12823	-161.73515	288.55118	-928.59882	-113.72997	84.180977	-905.30676	-189.87631	122.12608	-951.1015	-177.37997	58.71701	-844.62561	-75.854912	35.127628	-1060.91	-140.37352	75.83564	-1061.0022	-139.75571	75.938484	-1104.5737	-395.88699	491.88434	-625.30127	-273.29648	464.19452	-651.08679	-398.34189	448.27707	-578.32697	-317.4071	308.2597	-509.41141	-352.63266	198.37697	-321.56827	-276.19061	178.75714	-368.99747	-287.26706	242.15971	-271.48334	-382.56662	53.060921	-326.10095	-321.71936	54.083584	-362.95084			
518	5.17	-212.61684	1341.8706	-825.15039	-409.00412	1411.3724	-741.95911	-38.993465	1377.4137	-726.38574	-348.11157	956.56335	-784.65045	-92.825668	986.63458	-780.28717	-159.60028	989.56763	-606.38702	-290.47028	982.78961	-607.1731	-69.446045	523.66803	-878.91656	-200.52196	515.51764	-894.75635	-70.28257	442.03503	-894.45477	-162.35167	288.18591	-934.90302	-114.96019	85.123947	-906.64233	-191.36774	121.3732	-953.23431	-177.74835	59.062378	-845.09241	-74.942276	34.200775	-1061.889	-139.9463	73.354858	-1063.1425	-139.88818	71.888649	-1106.6578	-397.46335	489.56882	-653.9967	-275.51227	459.92282	-682.35565	-400.14813	447.61002	-606.88861	-319.89517	309.79727	-534.6601	-355.35104	207.25024	-343.56186	-279.56491	183.69218	-390.4183	-289.20154	256.29428	-300.6604	-383.01483	59.473732	-333.36215	-323.35135	56.513191	-372.39566			
519	5.18	-211.86014	1343.3334	-840.33008	-408.24948	1412.9637	-757.26721	-38.218224	1379.1084	-741.76544	-345.61105	957.52527	-800.14197	-90.858322	989.12427	-795.16339	-158.67886	991.5224	-621.68884	-289.35306	983.47168	-622.39691	-68.475098	523.42987	-890.04309	-199.6011	516.15558	-908.07874	-69.425888	441.84085	-904.05304	-163.11491	287.51709	-940.03394	-116.01149	85.641846	-907.70148	-192.68044	120.73679	-954.90179	-178.10371	59.298759	-845.45685	-74.328453	33.671257	-1062.5901	-139.61887	71.476303	-1064.6178	-139.83916	68.311165	-1108.2336	-399.09399	488.19034	-683.03461	-277.20514	456.89853	-713.5155	-401.90472	447.86655	-636.09467	-321.98029	311.85339	-561.30652	-357.18344	215.12733	-368.48578	-282.09729	188.93454	-414.56299	-290.91336	269.01633	-332.67944	-383.17365	67.462357	-342.96075	-325.33868	60.422314	-384.76254			
520	5.19	-211.32602	1344.8575	-855.44708	-407.57159	1414.5774	-772.03625	-37.546043	1380.8054	-757.30139	-343.17755	958.8656	-815.43481	-88.707054	991.30511	-809.99371	-157.33182	993.41064	-636.74786	-287.96741	984.28326	-637.15637	-67.711494	522.85486	-898.37561	-198.74405	515.67871	-920.00732	-68.760483	441.22995	-912.01569	-163.9102	286.63254	-944.43164	-116.8823	86.133362	-908.49237	-193.71617	120.26509	-955.96838	-178.53329	59.453247	-845.73486	-74.105331	33.418274	-1062.7843	-139.83698	70.086739	-1065.6351	-139.69637	65.117455	-1109.0125	-400.23187	487.7182	-712.28253	-278.1181	455.56329	-744.0282	-403.64398	448.98981	-665.4574	-323.79788	314.05396	-589.10443	-359.06412	222.48016	-395.19922	-284.27939	193.25423	-440.59192	-291.76657	279.35275	-366.85391	-383.39462	76.62513	-355.95621	-327.22916	65.565956	-399.67157			
521	5.2	-210.9957	1346.7144	-870.51984	-407.03049	1416.1749	-786.46869	-36.801369	1382.6019	-772.95648	-341.01764	960.63745	-830.30798	-86.6017	993.198	-824.72516	-155.69083	995.30939	-651.43274	-286.38367	985.42676	-651.63696	-67.316132	522.40991	-904.75244	-197.43784	514.45886	-930.42041	-68.206543	440.66434	-918.69617	-164.3481	285.84174	-948.37354	-117.65176	86.57869	-909.12305	-194.80473	119.9062	-957.01392	-178.74295	59.531612	-845.85565	-73.749763	33.007996	-1062.8535	-139.62883	69.04203	-1066.2297	-139.59216	62.173912	-1109.6202	-401.16791	488.6178	-741.27936	-278.39816	455.91721	-773.65869	-405.1059	450.48688	-695.18408	-325.18378	316.33072	-617.61145	-360.10632	229.39734	-422.23904	-285.57724	197.29817	-467.86172	-290.56647	286.31693	-399.31036	-384.25757	84.883766	-372.47748	-329.38254	71.560532	-418.00607			
522	5.21	-210.73351	1348.7698	-885.6012	-406.4801	1417.8529	-800.64734	-36.129768	1384.5396	-788.67474	-339.17477	962.75568	-844.85059	-84.583366	995.02789	-839.08618	-154.05875	997.38849	-665.40796	-284.60455	986.74756	-665.84961	-66.806702	522.28357	-910.98602	-196.37115	513.42072	-939.43121	-67.706673	440.32437	-924.18896	-164.3895	285.2963	-952.28064	-118.2458	86.893417	-909.51379	-195.63483	119.62263	-957.86865	-179.03502	59.652981	-846.01477	-73.511299	32.501995	-1062.8958	-139.52917	68.108551	-1066.7542	-139.80698	59.577282	-1110.0604	-401.60898	490.5535	-770.15332	-278.39328	457.76358	-802.33667	-405.81799	452.3255	-724.97211	-325.72208	318.97403	-646.20496	-359.63556	235.3997	-449.2413	-286.47922	200.49011	-494.91995	-288.36023	291.57455	-429.18781	-387.15454	93.3563	-395.24652	-332.5874	77.714149	-441.32617			
523	5.22	-210.49323	1350.9858	-900.58447	-406.26151	1419.6674	-815.02722	-35.234261	1386.6273	-804.31293	-337.5683	965.08014	-859.05658	-82.672035	996.95312	-853.31744	-152.29523	999.20819	-679.91052	-282.85663	988.44104	-679.86298	-66.707535	522.15399	-916.94568	-195.69876	513.08582	-946.89868	-67.432533	440.09283	-929.02545	-164.18719	284.95612	-956.22095	-118.90676	87.320938	-910.04102	-196.43758	119.45361	-958.67749	-179.35303	59.872585	-846.19299	-73.427345	32.156975	-1062.9465	-139.58794	67.403358	-1067.2615	-140.10141	57.357738	-1110.447	-401.16116	492.961	-798.74634	-277.95157	460.75836	-830.03644	-405.97403	454.66373	-754.51306	-325.3342	322.48904	-674.8399	-358.98032	242.45116	-476.73657	-286.45389	205.22864	-523.25586	-285.43634	295.78415	-456.09146	-390.38516	101.2624	-424.92725	-336.46121	83.382004	-470.85486			
524	5.23	-210.36459	1353.2069	-915.48248	-405.85721	1421.4485	-829.14447	-34.940445	1388.7609	-820.14087	-336.18954	967.77057	-872.91827	-81.056252	999.07251	-867.33997	-150.62791	1001.4904	-693.8136	-281.09778	990.45538	-693.81201	-66.823456	522.52203	-922.70038	-195.96049	513.70599	-952.82581	-67.329689	440.12012	-933.57129	-163.9984	284.75699	-960.42603	-119.58138	87.799301	-910.64764	-197.25984	119.3066	-959.63	-179.67488	60.184277	-846.41827	-73.453621	31.894241	-1063.0468	-139.77011	66.697578	-1067.9108	-140.40742	55.261074	-1111.0674	-400.53384	495.84509	-827.24866	-277.35281	464.39285	-857.7868	-405.65042	457.37488	-783.67316	-324.44894	326.96185	-703.94073	-357.21985	247.80295	-504.92783	-285.59369	210.26744	-552.00684	-282.25143	298.29874	-480.70679	-394.72644	105.98906	-459.36655	-340.70001	88.525444	-505.06555			
525	5.24	-210.36627	1355.3733	-930.31769	-405.84775	1423.3286	-843.4129	-34.050018	1391.2368	-835.75684	-334.73593	970.58185	-886.84186	-79.580704	1001.201	-881.2179	-149.12704	1004.0969	-707.65295	-279.47815	992.70477	-707.6391	-66.93782	523.26086	-929.01324	-196.53999	514.8916	-956.55695	-67.335442	440.33972	-938.17889	-163.79214	284.57361	-964.50177	-120.16039	88.361465	-911.32953	-198.05482	119.24155	-960.61676	-179.95679	60.539879	-846.65375	-73.532547	31.735037	-1063.1836	-140.05756	66.059357	-1068.5403	-140.49921	53.519356	-1111.8386	-399.72079	499.22784	-855.71625	-276.56927	468.90839	-884.77972	-404.80783	460.52008	-812.65704	-323.03326	331.04605	-733.70807	-355.41599	252.3602	-533.48944	-284.31268	215.23204	-581.78174	-279.33951	299.03214	-504.64117	-399.55405	109.6263	-496.88077	-344.8364	92.907364	-542.41394			
526	5.25	-210.4572	1357.4694	-945.08002	-405.48819	1425.0463	-857.60992	-33.846939	1393.7297	-851.45667	-333.64774	973.51581	-900.19788	-78.253197	1003.2898	-894.97736	-147.67818	1006.7803	-721.50653	-277.92072	995.13959	-721.36084	-66.972893	523.75714	-936.06854	-197.06978	515.66211	-959.92609	-67.439697	440.76205	-942.88293	-163.65019	284.47745	-967.91168	-120.58765	88.843826	-911.96417	-198.65663	119.23701	-961.37311	-180.1438	60.886391	-846.83301	-73.619316	31.617388	-1063.2856	-140.23711	65.570038	-1069.0549	-140.54716	52.293396	-1112.5939	-398.77454	503.09198	-883.94666	-275.67957	473.7334	-912.05609	-403.54379	464.2562	-841.59528	-321.61642	335.03387	-763.59418	-353.8074	255.25572	-563.09149	-283.04276	219.1438	-612.42834	-277.09387	297.85983	-529.38837	-403.93515	112.35935	-536.685	-348.41614	96.564095	-581.38214			
527	5.26	-210.52415	1359.5302	-959.68365	-405.69495	1426.9791	-871.98352	-33.80798	1396.1218	-866.70575	-332.38898	976.53888	-913.67688	-76.935333	1005.2246	-908.72229	-146.32663	1009.3777	-735.30103	-276.49982	997.6568	-735.01349	-66.814751	524.19647	-942.90656	-196.8436	515.79913	-964.19006	-67.587143	441.08414	-947.89465	-163.89786	284.4501	-970.67346	-120.73378	89.212387	-912.46039	-199.19783	119.22639	-962.00043	-180.17332	61.07766	-846.92078	-73.69088	31.483456	-1063.3909	-140.43967	65.125443	-1069.5356	-140.63228	50.940495	-1113.0178	-397.78568	507.23135	-911.81842	-274.56775	478.58829	-939.6311	-401.78934	468.09354	-870.46521	-320.5864	338.46146	-793.9928	-352.81198	256.49316	-593.81281	-282.3118	221.60207	-644.04639	-275.69556	294.94754	-555.51666	-407.5134	114.29431	-577.57227	-351.71738	99.556213	-621.59253			
